<svg width="231" height="119" viewBox="0 0 231 119" fill="none" xmlns="http://www.w3.org/2000/svg">
<path fill-rule="evenodd" clip-rule="evenodd" d="M213.96 16.5654C222.556 16.5656 229.525 23.5344 229.525 32.1309V102.177C229.525 110.773 222.556 117.742 213.96 117.742H120.565C111.969 117.742 105 110.773 105 102.177V32.1309C105 23.5344 111.969 16.5656 120.565 16.5654H213.96ZM161.287 62.168L145.532 63.8311L157.301 74.4365L154.014 89.9355L167.737 82.0195L181.461 89.9355L178.174 74.4365L189.943 63.8311L174.188 62.168L167.737 47.6973L161.287 62.168Z" fill="url(#paint0_linear_9749_338243)"/>
<path d="M136.606 16.5657H121.04C112.444 16.5657 105.475 23.5347 105.475 32.1313V102.177C105.475 110.774 112.444 117.743 121.04 117.743H214.434C223.031 117.743 230 110.774 230 102.177V32.1313C230 23.5347 223.031 16.5657 214.434 16.5657H198.869M136.606 16.5657V1M136.606 16.5657V32.1313M136.606 16.5657H198.869M198.869 16.5657V1M198.869 16.5657V32.1313M167.737 47.697L174.188 62.1675L189.943 63.8304L178.174 74.4366L181.461 89.9349L167.737 82.0193L154.014 89.9349L157.301 74.4366L145.532 63.8304L161.287 62.1675L167.737 47.697Z" stroke="#011C25" stroke-width="1.5" stroke-linecap="round" stroke-linejoin="round"/>
<path d="M1 32.1311C1 23.5344 7.96899 16.5654 16.5657 16.5654H32.1313H94.394H109.96C118.556 16.5654 125.525 23.5344 125.525 32.1311V102.177C125.525 110.773 118.556 117.742 109.96 117.742H16.5657C7.96899 117.742 1 110.773 1 102.177V32.1311Z" fill="#FAFAFA"/>
<path d="M32.1313 16.5657H16.5657C7.96899 16.5657 1 23.5347 1 32.1313V102.177C1 110.774 7.96899 117.743 16.5657 117.743H109.96C118.556 117.743 125.525 110.774 125.525 102.177V32.1313C125.525 23.5347 118.556 16.5657 109.96 16.5657H94.394M32.1313 16.5657V1M32.1313 16.5657V32.1313M32.1313 16.5657H94.394M94.394 16.5657V1M94.394 16.5657V32.1313" stroke="#0A7A94" stroke-width="1.5" stroke-linecap="round" stroke-linejoin="round" stroke-dasharray="12 6"/>
<path d="M49.2798 62.7355C49.2798 57.0529 53.8864 52.4463 59.569 52.4463H66.0482C71.6493 52.4463 76.1899 56.9869 76.1899 62.588C76.1899 66.121 74.3513 69.3994 71.3366 71.2417L69.0667 72.6289C64.642 75.3329 61.9434 80.1446 61.9434 85.3301V87.2712M61.9434 100.726C60.632 100.726 59.569 99.6632 59.569 98.3518C59.569 97.0405 60.632 95.9774 61.9434 95.9774C63.2547 95.9774 64.3178 97.0405 64.3178 98.3518C64.3178 99.6632 63.2547 100.726 61.9434 100.726Z" stroke="#0A7A94" stroke-width="1.5" stroke-linecap="round" stroke-linejoin="round" stroke-dasharray="5 3"/>
<defs>
<linearGradient id="paint0_linear_9749_338243" x1="105.537" y1="17.9905" x2="245.825" y2="82.04" gradientUnits="userSpaceOnUse">
<stop stop-color="#F0F2FB"/>
<stop offset="0.471154" stop-color="#E9EAFF"/>
<stop offset="1" stop-color="#E5E5EE"/>
</linearGradient>
</defs>
</svg>
