<svg width="231" height="119" viewBox="0 0 231 119" fill="none" xmlns="http://www.w3.org/2000/svg">
<path fill-rule="evenodd" clip-rule="evenodd" d="M213.96 16.5654C222.556 16.5656 229.525 23.5344 229.525 32.1309V102.177C229.525 110.773 222.556 117.742 213.96 117.742H120.565C111.969 117.742 105 110.773 105 102.177V32.1309C105 23.5344 111.969 16.5656 120.565 16.5654H213.96ZM161.287 62.168L145.532 63.8311L157.301 74.4365L154.014 89.9355L167.737 82.0195L181.461 89.9355L178.174 74.4365L189.943 63.8311L174.188 62.168L167.737 47.6973L161.287 62.168Z" fill="url(#paint0_linear_9749_338243)"/>
<path d="M136.606 16.5657H121.04C112.444 16.5657 105.475 23.5347 105.475 32.1313V102.177C105.475 110.774 112.444 117.743 121.04 117.743H214.434C223.031 117.743 230 110.774 230 102.177V32.1313C230 23.5347 223.031 16.5657 214.434 16.5657H198.869M136.606 16.5657V1M136.606 16.5657V32.1313M136.606 16.5657H198.869M198.869 16.5657V1M198.869 16.5657V32.1313M167.737 47.697L174.188 62.1675L189.943 63.8304L178.174 74.4366L181.461 89.9349L167.737 82.0193L154.014 89.9349L157.301 74.4366L145.532 63.8304L161.287 62.1675L167.737 47.697Z" stroke="#011C25" stroke-width="1.5" stroke-linecap="round" stroke-linejoin="round"/>
<path d="M1 32.1311C1 23.5344 7.96899 16.5654 16.5657 16.5654H32.1313H94.394H109.96C118.556 16.5654 125.525 23.5344 125.525 32.1311V102.177C125.525 110.773 118.556 117.742 109.96 117.742H16.5657C7.96899 117.742 1 110.773 1 102.177V32.1311Z" fill="#FAFAFA"/>
<path d="M32.1313 16.5657H16.5657C7.96899 16.5657 1 23.5347 1 32.1313V102.177C1 110.774 7.96899 117.743 16.5657 117.743H109.96C118.556 117.743 125.525 110.774 125.525 102.177V32.1313C125.525 23.5347 118.556 16.5657 109.96 16.5657H94.394M32.1313 16.5657V1M32.1313 16.5657V32.1313M32.1313 16.5657H94.394M94.394 16.5657V1M94.394 16.5657V32.1313M49.28 62.735C49.28 57.0525 53.8866 52.4459 59.5691 52.4459H66.0484C71.6495 52.4459 76.1901 56.9864 76.1901 62.5875C76.1901 66.1206 74.3514 69.399 71.3368 71.2413L69.0668 72.6285C64.6422 75.3324 61.9435 80.1442 61.9435 85.3296V87.2707M61.9435 100.726C60.6322 100.726 59.5691 99.6627 59.5691 98.3514C59.5691 97.04 60.6322 95.977 61.9435 95.977C63.2549 95.977 64.318 97.04 64.318 98.3514C64.318 99.6627 63.2549 100.726 61.9435 100.726Z" stroke="#0A7A94" stroke-width="1.5" stroke-linecap="round" stroke-linejoin="round" stroke-dasharray="12 6"/>
<defs>
<linearGradient id="paint0_linear_9749_338243" x1="105.537" y1="17.9905" x2="245.825" y2="82.04" gradientUnits="userSpaceOnUse">
<stop stop-color="#F0F2FB"/>
<stop offset="0.471154" stop-color="#E9EAFF"/>
<stop offset="1" stop-color="#E5E5EE"/>
</linearGradient>
</defs>
</svg>
