<svg width="249" height="106" viewBox="0 0 249 106" fill="none" xmlns="http://www.w3.org/2000/svg">
<path d="M1 46.4012L13.8937 1.55664H104.15L117 46.5321C115.723 50.3643 114.118 53.8693 110.597 56.1814C103.265 60.9955 92.0589 58.4798 88.7771 48.6343L88.0327 46.4012L87.2883 48.6343C82.8801 61.8589 64.1744 61.8589 59.7662 48.6343L59.0218 46.4012L58.2774 48.6343C53.8692 61.8589 35.1635 61.8589 30.7553 48.6343L30.0109 46.4012L29.2665 48.6343C25.9847 58.4798 14.7784 60.9955 7.44687 56.1814C3.87877 53.8385 2.29224 50.2779 1 46.4012Z" fill="url(#paint0_linear_9749_338269)"/>
<path d="M7.44687 56.1814C14.7784 60.9955 25.9847 58.4798 29.2665 48.6344L30.0109 46.4012L30.7553 48.6344C35.1635 61.8589 53.8692 61.8589 58.2774 48.6344L59.0218 46.4012L59.7662 48.6344C64.1744 61.8589 82.8801 61.8589 87.2883 48.6344L88.0327 46.4012L88.7771 48.6344C92.0589 58.4798 103.265 60.9955 110.597 56.1814M7.44687 56.1814V98.2596C7.44687 101.82 10.3332 104.706 13.8937 104.706H33.2343C36.7948 104.706 39.6812 101.82 39.6812 98.2596V78.919C39.6812 75.3585 42.5676 72.4721 46.1281 72.4721H71.9155C75.476 72.4721 78.3624 75.3585 78.3624 78.919V98.2596C78.3624 101.82 81.2488 104.706 84.8093 104.706H104.15C107.71 104.706 110.597 101.82 110.597 98.2596V56.1814M7.44687 56.1814C3.87877 53.8385 2.29224 50.2779 1 46.4012L13.8937 1.55664H104.15L117 46.5321C115.723 50.3643 114.118 53.8693 110.597 56.1814" stroke="#011C25" stroke-width="1.5" stroke-linecap="round" stroke-linejoin="round"/>
<circle cx="235.5" cy="94.5" r="8.5" stroke="#0A7A94" stroke-width="1.5" stroke-linecap="round" stroke-linejoin="round" stroke-dasharray="5 3"/>
<path d="M128 59H248M128 77H248M128 95H213.217" stroke="#0A7A94" stroke-width="1.5" stroke-linecap="round" stroke-linejoin="round" stroke-dasharray="5 3"/>
<defs>
<linearGradient id="paint0_linear_9749_338269" x1="1.5" y1="2.3594" x2="102.09" y2="78.3018" gradientUnits="userSpaceOnUse">
<stop stop-color="#F0F2FB"/>
<stop offset="0.471154" stop-color="#E9EAFF"/>
<stop offset="1" stop-color="#E5E5EE"/>
</linearGradient>
</defs>
</svg>