<svg width="1278" height="324" viewBox="0 0 1278 324" fill="none" xmlns="http://www.w3.org/2000/svg">
<path d="M429.124 235.539C469.048 197.465 405.616 96.2405 405.616 96.2405H366.112L313.316 229.04C313.316 229.04 393.432 269.578 429.124 235.539Z" fill="url(#paint0_linear_9525_88927)"/>
<path d="M143.159 146.767C143.159 146.767 255.316 205.34 300.352 162.556C326.218 137.985 346.317 53.4333 346.317 53.4333L290.527 48.1702L143.159 146.767Z" fill="url(#paint1_linear_9525_88927)"/>
<path d="M0.000183105 59.7491C0.000183105 59.7491 90.1988 98.5343 148.773 89.5737C212.284 79.8578 290.527 6.06471 290.527 6.06471L253.334 0.801501L0.000183105 59.7491Z" fill="url(#paint2_linear_9525_88927)"/>
<path d="M1071.68 5.34206C1075.24 8.90343 1077.02 13.5332 1077.02 18.8753C1077.02 24.5735 1075.24 28.8471 1071.68 32.4085C1068.12 35.9699 1063.49 37.7506 1058.14 37.7506C1052.45 37.7506 1048.17 35.9699 1044.61 32.4085C1041.05 28.8471 1039.27 24.5735 1039.27 18.8753C1039.27 13.5332 1041.05 8.90343 1044.61 5.34206C1048.17 1.78069 1052.45 0 1058.14 0C1063.49 0 1068.12 1.78069 1071.68 5.34206Z" fill="url(#paint3_linear_9525_88927)"/>
<path d="M575.505 96.8694H542.74V70.1591H575.505V19.2314H604.708V70.1591H653.771C671.252 70.1591 686.907 80.9834 693.08 97.3387L738.735 218.312L792.868 70.1591H823.852L740.16 282.417C735.886 293.457 731.969 301.648 728.764 306.99C725.202 312.689 721.285 316.606 716.299 319.099C711.313 321.948 704.546 323.017 696.355 323.017H661.454V296.306H687.452C693.15 296.306 697.423 295.95 700.273 294.526C703.122 293.457 705.258 291.677 707.039 288.827C708.82 285.978 710.957 281.349 713.806 274.938L723.065 253.214L667.441 110.259C664.3 102.186 656.526 96.8694 647.863 96.8694H604.708V204.067C604.708 211.902 606.133 217.244 608.982 220.449C611.831 223.654 617.173 225.079 624.652 225.079H656.348V251.789H622.871C605.776 251.789 593.312 248.228 586.189 240.393C579.066 232.914 575.505 220.805 575.505 204.423V96.8694Z" fill="url(#paint4_linear_9525_88927)"/>
<path fill-rule="evenodd" clip-rule="evenodd" d="M1005.9 111.115C998.418 97.2255 988.09 86.5414 974.913 79.0625C961.736 71.9398 946.778 68.0222 930.04 68.0222C903.685 68.0222 882.673 78.7064 867.716 99.3623L863.798 70.1591H838.512V323.017H867.716V224.01C873.414 233.27 881.605 240.749 892.289 246.091C902.617 251.433 915.082 253.926 930.04 253.926C946.422 253.926 961.38 250.008 974.913 242.173C988.09 234.338 998.418 223.654 1005.9 209.409C1013.38 195.519 1017.29 179.493 1017.29 160.974C1017.29 141.743 1013.38 125.36 1005.9 111.115ZM987.378 160.974C987.378 180.918 981.68 196.944 970.639 209.409C959.599 221.874 944.997 227.928 927.191 227.928C915.438 227.928 905.11 225.079 895.85 219.381C886.591 213.682 879.824 205.847 874.838 195.519C869.852 185.191 867.359 173.439 867.359 160.262C867.359 147.441 869.852 136.044 874.838 126.073C879.824 116.101 886.591 108.266 895.85 102.568C905.11 96.8694 915.438 94.0203 927.191 94.0203C944.997 94.0203 959.599 100.431 970.639 112.896C981.68 125.36 987.378 141.387 987.378 160.974Z" fill="url(#paint5_linear_9525_88927)"/>
<path fill-rule="evenodd" clip-rule="evenodd" d="M1278 251.789V2.49295H1248.8V97.9378C1242.74 88.6782 1234.55 81.5555 1224.22 76.2134C1213.54 70.8714 1201.07 68.0222 1186.47 68.0222C1169.73 68.0222 1154.78 71.9398 1141.6 79.7748C1128.07 87.6098 1117.74 98.6501 1110.26 112.539C1102.78 126.785 1099.22 142.811 1099.22 160.974C1099.22 180.206 1102.78 196.944 1110.26 210.833C1117.74 225.079 1128.07 235.763 1141.24 242.886C1154.42 250.365 1169.38 253.926 1186.47 253.926C1212.83 253.926 1233.48 243.598 1248.8 222.586L1252.71 251.789H1278ZM1241.67 196.232C1231.62 216.33 1211.61 227.928 1189.32 227.928C1171.16 227.928 1156.56 221.874 1145.52 209.409C1134.48 196.944 1129.13 180.918 1129.13 160.974C1129.13 141.387 1134.48 125.36 1145.52 112.896C1156.56 100.431 1171.16 94.0203 1189.32 94.0203C1211.87 94.0203 1231.87 106.472 1241.67 126.785C1246.66 137.113 1249.15 148.865 1249.15 161.686C1249.15 174.507 1246.66 186.26 1241.67 196.232Z" fill="url(#paint6_linear_9525_88927)"/>
<path d="M1043.54 70.1591H1072.75V251.789H1043.54V70.1591Z" fill="url(#paint7_linear_9525_88927)"/>
<defs>
<linearGradient id="paint0_linear_9525_88927" x1="639" y1="0" x2="639" y2="323.017" gradientUnits="userSpaceOnUse">
<stop stop-color="white" stop-opacity="0"/>
<stop offset="1" stop-color="white" stop-opacity="0.2"/>
</linearGradient>
<linearGradient id="paint1_linear_9525_88927" x1="639" y1="0" x2="639" y2="323.017" gradientUnits="userSpaceOnUse">
<stop stop-color="white" stop-opacity="0"/>
<stop offset="1" stop-color="white" stop-opacity="0.2"/>
</linearGradient>
<linearGradient id="paint2_linear_9525_88927" x1="639" y1="0" x2="639" y2="323.017" gradientUnits="userSpaceOnUse">
<stop stop-color="white" stop-opacity="0"/>
<stop offset="1" stop-color="white" stop-opacity="0.2"/>
</linearGradient>
<linearGradient id="paint3_linear_9525_88927" x1="639" y1="0" x2="639" y2="323.017" gradientUnits="userSpaceOnUse">
<stop stop-color="white" stop-opacity="0"/>
<stop offset="1" stop-color="white" stop-opacity="0.2"/>
</linearGradient>
<linearGradient id="paint4_linear_9525_88927" x1="639" y1="0" x2="639" y2="323.017" gradientUnits="userSpaceOnUse">
<stop stop-color="white" stop-opacity="0"/>
<stop offset="1" stop-color="white" stop-opacity="0.2"/>
</linearGradient>
<linearGradient id="paint5_linear_9525_88927" x1="639" y1="0" x2="639" y2="323.017" gradientUnits="userSpaceOnUse">
<stop stop-color="white" stop-opacity="0"/>
<stop offset="1" stop-color="white" stop-opacity="0.2"/>
</linearGradient>
<linearGradient id="paint6_linear_9525_88927" x1="639" y1="0" x2="639" y2="323.017" gradientUnits="userSpaceOnUse">
<stop stop-color="white" stop-opacity="0"/>
<stop offset="1" stop-color="white" stop-opacity="0.2"/>
</linearGradient>
<linearGradient id="paint7_linear_9525_88927" x1="639" y1="0" x2="639" y2="323.017" gradientUnits="userSpaceOnUse">
<stop stop-color="white" stop-opacity="0"/>
<stop offset="1" stop-color="white" stop-opacity="0.2"/>
</linearGradient>
</defs>
</svg>
