<svg width="1280" height="324" viewBox="0 0 1280 324" fill="none" xmlns="http://www.w3.org/2000/svg">
<path d="M429.796 235.908C469.782 197.774 406.251 96.3911 406.251 96.3911H366.685L313.806 229.399C313.806 229.399 394.048 270 429.796 235.908Z" fill="url(#paint0_linear_9525_88927)"/>
<path d="M143.382 146.997C143.382 146.997 255.715 205.662 300.822 162.811C326.728 138.201 346.859 53.5169 346.859 53.5169L290.982 48.2456L143.382 146.997Z" fill="url(#paint1_linear_9525_88927)"/>
<path d="M0 59.8426C0 59.8426 90.3398 98.6885 149.005 89.714C212.617 79.9828 290.982 6.07421 290.982 6.07421L253.731 0.802755L0 59.8426Z" fill="url(#paint2_linear_9525_88927)"/>
<path d="M1073.35 5.35042C1076.92 8.91736 1078.7 13.5544 1078.7 18.9048C1078.7 24.612 1076.92 28.8923 1073.35 32.4592C1069.79 36.0262 1065.15 37.8097 1059.8 37.8097C1054.09 37.8097 1049.81 36.0262 1046.25 32.4592C1042.68 28.8923 1040.89 24.612 1040.89 18.9048C1040.89 13.5544 1042.68 8.91736 1046.25 5.35042C1049.81 1.78347 1054.09 0 1059.8 0C1065.15 0 1069.79 1.78347 1073.35 5.35042Z" fill="url(#paint3_linear_9525_88927)"/>
<path d="M576.405 97.021H543.589V70.2689H576.405V19.2615H605.654V70.2689H654.794C672.303 70.2689 687.982 81.1102 694.164 97.491L739.892 218.654L794.109 70.2689H825.142L741.318 282.859C737.038 293.917 733.114 302.121 729.904 307.471C726.337 313.178 722.413 317.102 717.42 319.599C712.426 322.452 705.649 323.522 697.445 323.522H662.489V296.77H688.527C694.235 296.77 698.515 296.413 701.368 294.987C704.222 293.917 706.362 292.133 708.146 289.28C709.929 286.426 712.069 281.789 714.923 275.368L724.197 253.61L668.485 110.432C665.339 102.346 657.553 97.021 648.877 97.021H605.654V204.386C605.654 212.233 607.081 217.584 609.935 220.794C612.788 224.004 618.139 225.431 625.629 225.431H657.375V252.183H623.846C606.724 252.183 594.24 248.616 587.106 240.769C579.972 233.278 576.405 221.151 576.405 204.743V97.021Z" fill="url(#paint4_linear_9525_88927)"/>
<path fill-rule="evenodd" clip-rule="evenodd" d="M1007.47 111.289C999.981 97.3777 989.636 86.6768 976.439 79.1863C963.241 72.0524 948.26 68.1287 931.495 68.1287C905.1 68.1287 884.055 78.8296 869.074 99.5179L865.15 70.2689H839.825V323.522H869.074V224.361C874.781 233.635 882.985 241.126 893.686 246.476C904.03 251.827 916.514 254.323 931.495 254.323C947.903 254.323 962.884 250.4 976.439 242.553C989.636 234.705 999.981 224.004 1007.47 209.737C1014.96 195.825 1018.89 179.774 1018.89 161.226C1018.89 141.965 1014.96 125.557 1007.47 111.289ZM988.923 161.226C988.923 181.201 983.216 197.252 972.158 209.737C961.101 222.221 946.476 228.285 928.642 228.285C916.871 228.285 906.527 225.431 897.252 219.724C887.978 214.017 881.201 206.17 876.207 195.826C871.214 185.481 868.717 173.71 868.717 160.513C868.717 147.672 871.214 136.257 876.207 126.27C881.201 116.283 887.978 108.435 897.252 102.728C906.527 97.021 916.871 94.1675 928.642 94.1675C946.476 94.1675 961.101 100.588 972.158 113.072C983.216 125.557 988.923 141.608 988.923 161.226Z" fill="url(#paint5_linear_9525_88927)"/>
<path fill-rule="evenodd" clip-rule="evenodd" d="M1280 252.183V2.49685H1250.75V98.0911C1244.69 88.817 1236.48 81.6831 1226.14 76.3327C1215.44 70.9823 1202.95 68.1287 1188.33 68.1287C1171.56 68.1287 1156.58 72.0524 1143.39 79.8997C1129.83 87.7469 1119.49 98.8045 1112 112.716C1104.51 126.983 1100.94 143.035 1100.94 161.226C1100.94 180.488 1104.51 197.252 1112 211.163C1119.49 225.431 1129.83 236.132 1143.03 243.266C1156.23 250.756 1171.21 254.323 1188.33 254.323C1214.72 254.323 1235.41 243.979 1250.75 222.934L1254.67 252.183H1280ZM1243.62 196.539C1233.55 216.669 1213.5 228.285 1191.18 228.285C1172.99 228.285 1158.37 222.221 1147.31 209.737C1136.25 197.252 1130.9 181.201 1130.9 161.226C1130.9 141.608 1136.25 125.557 1147.31 113.072C1158.37 100.588 1172.99 94.1675 1191.18 94.1675C1213.76 94.1675 1233.8 106.638 1243.62 126.983C1248.61 137.328 1251.11 149.098 1251.11 161.939C1251.11 174.781 1248.61 186.551 1243.62 196.539Z" fill="url(#paint6_linear_9525_88927)"/>
<path d="M1045.18 70.2689H1074.42V252.183H1045.18V70.2689Z" fill="url(#paint7_linear_9525_88927)"/>
<defs>
<linearGradient id="paint0_linear_9525_88927" x1="640" y1="0" x2="640" y2="323.522" gradientUnits="userSpaceOnUse">
<stop stop-color="white" stop-opacity="0"/>
<stop offset="1" stop-color="white" stop-opacity="0.08"/>
</linearGradient>
<linearGradient id="paint1_linear_9525_88927" x1="640" y1="0" x2="640" y2="323.522" gradientUnits="userSpaceOnUse">
<stop stop-color="white" stop-opacity="0"/>
<stop offset="1" stop-color="white" stop-opacity="0.08"/>
</linearGradient>
<linearGradient id="paint2_linear_9525_88927" x1="640" y1="0" x2="640" y2="323.522" gradientUnits="userSpaceOnUse">
<stop stop-color="white" stop-opacity="0"/>
<stop offset="1" stop-color="white" stop-opacity="0.08"/>
</linearGradient>
<linearGradient id="paint3_linear_9525_88927" x1="640" y1="0" x2="640" y2="323.522" gradientUnits="userSpaceOnUse">
<stop stop-color="white" stop-opacity="0"/>
<stop offset="1" stop-color="white" stop-opacity="0.08"/>
</linearGradient>
<linearGradient id="paint4_linear_9525_88927" x1="640" y1="0" x2="640" y2="323.522" gradientUnits="userSpaceOnUse">
<stop stop-color="white" stop-opacity="0"/>
<stop offset="1" stop-color="white" stop-opacity="0.08"/>
</linearGradient>
<linearGradient id="paint5_linear_9525_88927" x1="640" y1="0" x2="640" y2="323.522" gradientUnits="userSpaceOnUse">
<stop stop-color="white" stop-opacity="0"/>
<stop offset="1" stop-color="white" stop-opacity="0.08"/>
</linearGradient>
<linearGradient id="paint6_linear_9525_88927" x1="640" y1="0" x2="640" y2="323.522" gradientUnits="userSpaceOnUse">
<stop stop-color="white" stop-opacity="0"/>
<stop offset="1" stop-color="white" stop-opacity="0.08"/>
</linearGradient>
<linearGradient id="paint7_linear_9525_88927" x1="640" y1="0" x2="640" y2="323.522" gradientUnits="userSpaceOnUse">
<stop stop-color="white" stop-opacity="0"/>
<stop offset="1" stop-color="white" stop-opacity="0.08"/>
</linearGradient>
</defs>
</svg>